<svg xmlns="http://www.w3.org/2000/svg" xmlns:xlink="http://www.w3.org/1999/xlink" viewBox="0 0 111 111"><path d="M 55.5 0 C 86.152 0 111 24.848 111 55.5 C 111 86.152 86.152 111 55.5 111 C 24.848 111 0 86.152 0 55.5 C 0 24.848 24.848 0 55.5 0 Z M 54.591 14.744 L 52.65 26.011 C 52.495 26.909 51.273 27.064 50.901 26.233 L 46.224 15.803 C 45.8 14.857 44.381 15.222 44.464 16.256 L 45.381 27.653 C 45.454 28.561 44.309 29.015 43.741 28.303 L 36.623 19.367 C 35.977 18.556 34.693 19.263 35.03 20.244 L 38.747 31.054 C 39.043 31.916 38.047 32.641 37.32 32.093 L 28.207 25.211 C 27.381 24.586 26.313 25.591 26.883 26.457 L 33.166 36.002 C 33.666 36.762 32.881 37.713 32.041 37.363 L 21.507 32.968 C 20.551 32.569 19.766 33.808 20.533 34.505 L 28.988 42.184 C 29.662 42.796 29.138 43.913 28.237 43.782 L 16.943 42.151 C 15.918 42.002 15.465 43.398 16.381 43.882 L 26.476 49.214 C 27.28 49.639 27.049 50.851 26.145 50.95 L 14.8 52.183 C 13.771 52.295 13.679 53.759 14.686 54 L 25.788 56.648 C 26.673 56.859 26.75 58.091 25.898 58.412 L 15.216 62.433 C 14.247 62.798 14.522 64.24 15.557 64.222 L 26.966 64.021 C 27.876 64.005 28.256 65.178 27.511 65.701 L 18.163 72.258 C 17.315 72.853 17.939 74.181 18.937 73.905 L 29.938 70.868 C 30.815 70.626 31.475 71.668 30.883 72.36 L 23.456 81.04 C 22.782 81.828 23.716 82.958 24.614 82.443 L 34.516 76.759 C 35.305 76.306 36.203 77.151 35.801 77.969 L 30.762 88.227 C 30.305 89.158 31.49 90.02 32.232 89.297 L 40.412 81.326 C 41.064 80.69 42.144 81.285 41.957 82.177 L 39.622 93.368 C 39.411 94.384 40.773 94.924 41.312 94.039 L 47.256 84.279 C 47.73 83.501 48.922 83.807 48.964 84.718 L 49.481 96.14 C 49.527 97.176 50.981 97.36 51.283 96.368 L 54.618 85.434 C 54.884 84.562 56.116 84.562 56.382 85.434 L 59.717 96.368 C 60.019 97.36 61.473 97.176 61.519 96.14 L 62.036 84.718 C 62.077 83.807 63.27 83.501 63.744 84.279 L 69.689 94.039 C 70.227 94.924 71.59 94.384 71.378 93.368 L 69.043 82.177 C 68.857 81.285 69.936 80.69 70.588 81.326 L 78.769 89.297 C 79.511 90.02 80.696 89.158 80.238 88.227 L 75.199 77.969 C 74.797 77.151 75.695 76.306 76.485 76.759 L 86.386 82.442 C 87.285 82.958 88.219 81.827 87.545 81.04 L 80.118 72.359 C 79.526 71.667 80.185 70.625 81.063 70.867 L 92.064 73.905 C 93.062 74.18 93.685 72.853 92.838 72.258 L 83.489 65.701 C 82.744 65.178 83.124 64.004 84.034 64.02 L 95.443 64.221 C 96.479 64.239 96.753 62.798 95.784 62.433 L 85.102 58.411 C 84.25 58.091 84.328 56.859 85.213 56.648 L 96.314 53.999 C 97.321 53.759 97.229 52.294 96.2 52.182 L 84.855 50.949 C 83.951 50.85 83.72 49.638 84.524 49.214 L 94.619 43.882 C 95.535 43.398 95.082 42.002 94.057 42.151 L 82.763 43.782 C 81.863 43.913 81.338 42.796 82.012 42.184 L 90.467 34.505 C 91.234 33.808 90.449 32.569 89.493 32.967 L 78.959 37.363 C 78.119 37.713 77.334 36.762 77.834 36.001 L 84.117 26.457 C 84.687 25.591 83.619 24.586 82.793 25.211 L 73.68 32.092 C 72.953 32.641 71.957 31.916 72.253 31.054 L 75.97 20.244 C 76.307 19.263 75.023 18.556 74.377 19.367 L 67.259 28.303 C 66.691 29.015 65.546 28.561 65.619 27.653 L 66.536 16.256 C 66.619 15.222 65.2 14.857 64.776 15.803 L 60.099 26.233 C 59.727 27.064 58.505 26.909 58.35 26.011 L 56.409 14.744 C 56.232 13.722 54.768 13.722 54.591 14.744 Z" fill="hsl(204, 61%, 12%)"></path><g transform="translate(40.052 43.222)" id="ss12246688214_2"><path d="M 1.22 15.504 L 1.22 15.504 C 7.678 26.851 24.032 26.851 30.49 15.504 L 30.49 15.504" fill="transparent" stroke-width="4.7" stroke="hsl(0, 0%, 0%)" stroke-linecap="round" stroke-linejoin="round"></path><path d="M 3.252 0 C 5.049 0 6.505 1.462 6.505 3.265 C 6.505 5.068 5.049 6.53 3.252 6.53 C 1.456 6.53 0 5.068 0 3.265 C 0 1.462 1.456 0 3.252 0 Z" fill="#000000"></path><path d="M 27.645 0 C 29.441 0 30.897 1.462 30.897 3.265 C 30.897 5.068 29.441 6.53 27.645 6.53 C 25.848 6.53 24.392 5.068 24.392 3.265 C 24.392 1.462 25.848 0 27.645 0 Z" fill="#000000"></path></g></svg>